<?xml version="1.0" encoding="utf-8"?>
<!-- Generator: Adobe Illustrator 24.0.0, SVG Export Plug-In . SVG Version: 6.00 Build 0)  -->
<svg version="1.1" id="Layer_1" xmlns="http://www.w3.org/2000/svg" xmlns:xlink="http://www.w3.org/1999/xlink" x="0px" y="0px"
	 viewBox="0 0 953.83 181.74" style="enable-background:new 0 0 953.83 181.74;" xml:space="preserve">
<style type="text/css">
	.st0{fill:#FCFCFC;}
	.st1{fill:#FAFAFA;}
	.st2{fill:#1A1A44;}
	.st3{fill:#02EDB4;}
</style>
<g>
	<path class="st0" d="M-1.86,87.95C-3.8,45.85,33.06-0.12,85.83,0c48.53,0.11,88.16,39.81,88.09,88.47
		c-0.07,47.71-40.13,87.43-88.09,87.53C33.64,176.1-3.96,130.23-1.86,87.95z M44.86,52.62c-8.9,0.15-16.16,1.27-21.46,7.19
		c-7.02,7.86-10.08,17.09-8.29,27.65c0.41,2.42,0.25,5.78,2.54,6.68c2.16,0.85,3.8-2.15,5.6-3.54c8.75-6.76,18.3-10.11,29.35-6.83
		c4.43,1.32,7.28,4.63,7.31,9.06c0.03,4.67-4.28,4.66-7.74,5.15c-8,1.13-15.47,3.62-22.24,8.22c-3.08,2.09-3.74,3.45-0.86,6.63
		c15.44,17.04,34.94,28.56,54.14,40.5c1.75,1.09,3.41,1.16,5.13,0.08c18.31-11.47,37.08-22.32,52.03-38.36
		c5.82-6.24,5.81-6.2-1.52-10.63c-6.55-3.95-13.74-5.67-21.23-6.67c-5.91-0.79-7.52-4.12-4.62-9.01c1.58-2.67,3.72-4.44,6.91-5.23
		c5.33-1.33,10.48-1.26,15.73,0.31c5.87,1.76,10.89,4.85,15.33,9c1.94,1.81,3.43,2.37,4.59-0.97c5.07-14.56-2.71-39.75-26.37-39.22
		c-15.01,0.34-27.71,6.4-39.2,15.34c-3.28,2.55-5.09,2.57-8.33,0C70.5,59.14,57.99,53.28,44.86,52.62z"/>
	<path class="st1" d="M760.64,89.31c-0.39-32.61,29.67-41.27,50.31-32.27c12.84,5.6,19.74,19.06,18.58,35.56
		c-1.14,16.23-9.8,27.46-24.04,31.18c-15.89,4.16-31.66-1.05-39.4-13.08C761.89,104.2,760.51,96.94,760.64,89.31z M811.98,89.74
		c-0.03-3.33-0.15-6.64-1.14-9.88c-2.35-7.76-7.91-12.14-15.64-12.21c-7.74-0.07-13.5,4.16-15.8,11.96
		c-2.08,7.05-1.98,14.18,0.44,21.12c2.31,6.63,7.85,10.42,14.82,10.59c7.2,0.17,12.81-3.56,15.53-10.32
		C811.65,97.38,811.99,93.59,811.98,89.74z"/>
	<path class="st1" d="M409.2,89.49c0.4,28.98-23.76,40.41-46.58,33.83c-10.85-3.13-17.76-10.64-20.81-21.57
		c-2.15-7.69-2.25-15.47-0.4-23.19c3.95-16.5,18.14-26.01,36.55-24.7c17.07,1.21,29.22,12.86,30.91,29.65
		C409.08,85.49,409.1,87.49,409.2,89.49z M357.82,89.01c-0.1,4.36,0.28,8.65,2.07,12.7c2.79,6.29,7.74,9.44,14.5,9.57
		c6.98,0.14,12.39-2.91,15.05-9.44c3.34-8.17,3.39-16.65-0.05-24.81c-2.73-6.48-8.05-9.51-15.09-9.38
		c-6.86,0.13-11.6,3.47-14.42,9.66C358.19,81.03,357.77,84.98,357.82,89.01z"/>
	<path class="st1" d="M280.07,89.73c0-8.82,0.13-17.65-0.07-26.47c-0.09-3.84,1.55-6.01,5.02-6.93c11.3-2.99,22.68-3.71,33.91,0.1
		c8.45,2.87,13.42,8.92,14.47,17.93c1.01,8.71-1.99,15.87-9.24,20.68c-3.26,2.17-2.68,3.31-0.63,5.76
		c3.83,4.59,7.21,9.56,10.97,14.22c1.58,1.96,1.28,3.46-0.04,5.27c-3.86,5.29-12.09,5.44-16.32-0.15
		c-3.9-5.16-7.62-10.53-10.68-16.21c-2.28-4.23-5.65-3.22-8.96-3.26c-2.22-0.02-1.44,1.84-1.45,2.98
		c-0.07,5.49-0.15,10.99,0.03,16.48c0.09,2.61-0.87,3.66-3.38,3.63c-1.83-0.02-3.66,0.22-5.48,0.16c-6.03-0.19-8.08-2.22-8.13-8.21
		C280.02,107.04,280.07,98.39,280.07,89.73z M296.93,78.29c1.97,2.35-3.52,7.81,2.84,9.03c3.83,0.74,7.96,0.34,11.66-1.53
		c0.44-0.22,0.86-0.49,1.27-0.77c1.7-1.16,2.95-2.69,3.35-4.75c0.72-3.77,0.55-7.44-2.81-9.94c-4.48-3.33-9.92-3.51-14.77-2.09
		c-3.27,0.96-0.92,5.23-1.52,7.94C296.84,76.67,296.93,77.19,296.93,78.29z"/>
	<path class="st0" d="M953.69,91.12c0,9.49-0.11,18.98,0.07,28.46c0.06,2.98-0.81,4.33-3.85,4.21c-2.16-0.08-4.33,0.15-6.48,0.03
		c-4.39-0.24-6.65-2.68-6.69-7.06c-0.05-5.66-0.21-11.33,0.05-16.98c0.15-3.2-0.95-3.95-3.96-3.82c-5.48,0.24-10.99,0.31-16.46-0.02
		c-3.74-0.22-4.37,1.3-4.25,4.59c0.23,6.48-0.04,12.98,0.13,19.47c0.07,2.54-0.71,3.75-3.29,3.73c-2.49-0.03-4.99,0.18-7.47,0.02
		c-3.66-0.24-6.02-2.25-6.05-5.99c-0.13-19.97-0.12-39.95-0.16-59.92c0-0.81-0.15-1.88,0.78-2.17c4.04-1.25,8.15-1.51,12.24-0.19
		c3.36,1.08,3.79,3.94,3.84,6.84c0.1,5.66,0.18,11.32,0,16.98c-0.08,2.62,0.68,3.47,3.34,3.39c5.98-0.18,11.98-0.19,17.97,0
		c2.64,0.08,3.42-0.72,3.35-3.35c-0.18-6.65,0.18-13.33-0.16-19.97c-0.18-3.42,1.19-4.45,4.15-4.49c2.16-0.03,4.34-0.24,6.47-0.03
		c4.31,0.42,6.48,2.86,6.45,7.3C953.65,71.81,953.68,81.46,953.69,91.12z"/>
	<path class="st1" d="M458.48,89.32c0-7.83-0.06-15.66,0.02-23.49c0.07-7.15,2.92-10.01,10.01-10.05
		c10.49-0.05,20.99,0.24,31.46-0.13c4.59-0.16,5.86,1.89,5.98,5.76c0.12,4.08-0.85,7.54-5.72,7.67c-7.15,0.19-14.32,0.22-21.47,0.01
		c-3.05-0.09-3.91,0.73-3.88,3.85c0.09,9.17-0.07,9.18,8.94,9.18c4.16,0,8.36,0.35,12.48-0.09c5.03-0.54,6.48,1.97,6.58,6.27
		c0.11,4.88-1.9,7.17-6.75,7.28c-5.66,0.13-11.34,0.28-16.98-0.06c-3.67-0.22-4.33,1.07-4.27,4.45c0.19,9.93,0.04,9.93,10.16,9.93
		c4.99,0,10.04,0.43,14.97-0.12c5.23-0.58,6.35,2.22,6.56,6.32c0.24,4.73-1.97,7.27-6.66,7.41c-4.82,0.14-9.66,0.03-14.48,0.03
		c-5.16,0-10.32,0.02-15.48,0c-8.74-0.03-11.42-2.65-11.45-11.23C458.46,104.65,458.48,96.99,458.48,89.32z"/>
	<path class="st1" d="M218.76,89.23c0-8.67,0.14-17.33-0.07-25.99c-0.09-3.82,1.46-5.99,4.99-6.94c10.82-2.91,21.72-3.58,32.48-0.09
		c10.47,3.4,16.24,12.27,15.52,22.94c-0.76,11.23-7.96,19.17-19.5,21.54c-4.44,0.91-8.93,1.1-13.42,0.87
		c-2.37-0.12-3.19,0.6-3.1,3.05c0.18,4.99-0.14,10.01,0.13,14.99c0.17,3.1-0.98,4.27-3.91,4.2c-1.66-0.04-3.33,0.18-4.99,0.13
		c-6.12-0.19-8.05-2.08-8.11-8.19C218.7,106.9,218.76,98.07,218.76,89.23z M235.54,77.82c0,10.95,1.56,12.31,11.22,9.8
		c5.66-1.47,8.47-6.15,7.34-12.25c-1.05-5.73-6.48-8.43-15.27-7.55c-6.63,0.66-1.82,5.81-3.27,8.51
		C235.36,76.72,235.54,77.32,235.54,77.82z"/>
	<path class="st1" d="M676.53,125.08c-7.05-0.13-14.04-0.68-19.91-5.18c-4.74-3.63-5.11-9.06-1.13-12.9
		c1.58-1.52,2.88-2.13,5.08-0.58c5.17,3.65,11.06,5.32,17.45,4.76c4.17-0.36,8.21-1.32,9.04-6.22c0.88-5.25-3.24-6.79-7.05-8.13
		c-5.32-1.88-10.72-3.49-15.87-5.91c-7.4-3.48-11.32-9.08-11.13-17.3c0.19-8.38,4.41-14.24,12.09-17.24
		c10.19-3.97,20.56-3.83,30.63,0.45c5.5,2.34,7.23,7.33,4.68,11.78c-1.32,2.32-2.73,3.79-5.89,2.04
		c-5.07-2.82-10.76-3.45-16.48-2.74c-3.35,0.42-6.85,1.33-7.33,5.48c-0.49,4.16,3.02,5.15,5.94,6.23
		c5.29,1.95,10.85,3.13,15.88,5.85c9.42,5.09,13.36,11.93,12.14,21.37c-1.07,8.29-7.3,14.54-16.75,17
		C684.16,124.84,680.36,124.97,676.53,125.08z"/>
	<path class="st1" d="M548.34,125.07c-20.92-0.14-33.36-10.5-36.05-28.85c-2.89-19.76,6.05-35.83,22.94-40.82
		c9.06-2.68,18.14-2.62,26.71,1.79c5.77,2.97,7.12,8.36,3.73,12.79c-1.38,1.8-2.64,2.67-4.94,1.07c-2.44-1.71-5.32-2.72-8.32-3.17
		c-12.64-1.93-21.49,4.98-22.71,17.73c-0.16,1.65-0.26,3.33-0.21,4.98c0.49,16.5,13.68,25.11,29.07,19.02
		c2.92-1.16,6.02-4.51,8.37,0.92c1.98,4.58,0.63,8.87-4.03,11.31C557.91,124.46,552.5,125.16,548.34,125.07z"/>
	<path class="st1" d="M608.93,96.61c0,7.82-0.09,15.64,0.05,23.45c0.05,2.54-0.78,3.7-3.34,3.68c-1.99-0.02-3.99,0.24-5.98,0.16
		c-5.69-0.24-7.73-2.29-7.76-8.05c-0.07-14.14-0.14-28.28,0.07-42.42c0.05-3.39-0.99-4.29-4.17-4.01c-2.97,0.26-6.03-0.29-8.96,0.13
		c-5.25,0.77-6.32-2.15-6.39-6.36c-0.09-5.06,1.77-7.34,6.52-7.4c8.15-0.11,16.29-0.03,24.44-0.03c6.48,0,12.99,0.32,19.45-0.11
		c4.68-0.31,5.74,2.06,5.95,5.82c0.23,4.13-0.94,7.42-5.6,7.88c-3.29,0.32-6.66,0.33-9.96,0.04c-3.38-0.3-4.57,0.6-4.42,4.24
		C609.15,81.3,608.93,88.96,608.93,96.61z"/>
	<path class="st1" d="M867.81,96.61c0,7.82-0.09,15.64,0.05,23.45c0.05,2.55-0.78,3.7-3.34,3.68c-1.99-0.02-3.99,0.24-5.98,0.16
		c-5.69-0.24-7.73-2.29-7.76-8.05c-0.07-14.14-0.14-28.28,0.07-42.42c0.05-3.39-1-4.29-4.17-4.01c-2.97,0.26-6.03-0.29-8.96,0.13
		c-5.25,0.77-6.31-2.15-6.39-6.36c-0.09-5.06,1.77-7.34,6.52-7.4c8.15-0.11,16.29-0.03,24.44-0.03c6.48,0,12.99,0.32,19.45-0.11
		c4.68-0.31,5.74,2.07,5.95,5.83c0.23,4.13-0.94,7.44-5.6,7.88c-3.46,0.33-6.99,0.29-10.46,0.05c-2.94-0.2-4.03,0.49-3.92,3.73
		C867.99,80.97,867.81,88.79,867.81,96.61z"/>
	<path class="st2" d="M825.17,181.69c-8.15,0-16.31-0.09-24.46,0.05c-2.97,0.05-4.49-0.84-3.96-3.97
		c2.03-12.08,4.08-24.15,6.12-36.22c0.2-1.17,0.95-1.74,2.06-1.75c3.83-0.04,7.65-0.03,11.48-0.03c2.1,0.01,2.45,1.28,2.13,3.02
		c-0.8,4.39-1.42,8.83-2.45,13.17c-0.82,3.46-0.03,4.66,3.75,4.88c4.74,0.28,7.63-0.73,7.75-6.02c0.03-1.47,0.45-2.94,0.76-4.4
		c2.28-10.68,2.29-10.68,13.46-10.68c5.49,0,10.98,0.04,16.47-0.02c2.25-0.03,3.2,0.31,2.67,3.1c-2.27,12.03-4.24,24.12-6.29,36.2
		c-0.47,2.77-2.5,2.68-4.54,2.68C841.81,181.69,833.49,181.69,825.17,181.69z M840.48,170.73c2.49,0,4.99-0.11,7.48,0.03
		c2.45,0.14,3.26-1.09,3.43-3.93c0.36-6.08,1.63-12.06,3.18-17.94c0.82-3.13,0.33-4.36-2.51-4.26c-3.99,0.14-7.98-0.07-11.97,0.07
		c-2.53,0.09-6.57-1.32-6.05,3.32c0.42,3.71,4.03,1.66,6.06,1.72c9.11,0.26,9.11,0.11,7.52,9.32c-1.21,7.01-1.9,7.44-9.06,6.53
		c-1.68-0.21-2.48-0.66-2.07-2.41c0.41-1.77,0.08-2.85-2.1-2.83c-1.74,0.01-2.58,0.51-3.12,2.32c-2.28,7.6-2.02,8.06,5.72,8.06
		C838.16,170.73,839.32,170.73,840.48,170.73z M813.24,170.95c2.66,0,5.34-0.14,7.99,0.04c2.61,0.17,3.08-1.48,3.25-3.4
		c0.24-2.68-1.89-1.72-3.13-1.77c-2.99-0.13-6-0.17-8.98,0c-2.59,0.14-3.13-0.92-2.67-3.25c0.9-4.57,1.69-9.17,2.39-13.77
		c0.21-1.36,1.87-3.37-1.08-3.9c-2.43-0.44-3.65,0.59-4.01,3.09c-0.61,4.28-1.48,8.53-2.19,12.8
		C803.13,170.95,803.14,170.95,813.24,170.95z"/>
	<path class="st1" d="M713.98,86.81c0-9.15,0.2-18.31-0.1-27.45c-0.11-3.42,1.22-4.43,4.18-4.48c1.83-0.03,3.66-0.24,5.48-0.12
		c5.49,0.36,7.36,2.44,7.38,8.45c0.06,14.14,0.13,28.29-0.06,42.43c-0.04,3.3,0.88,4.23,4.14,4.1c6.31-0.26,12.66,0.25,18.95-0.19
		c4.43-0.31,5.56,1.99,5.84,5.46c0.32,3.92-0.34,8.14-5,8.3c-11.28,0.4-22.61,0.36-33.89-0.18c-4.79-0.23-6.91-4.1-6.91-8.87
		C713.98,105.11,713.98,95.96,713.98,86.81z"/>
	<path class="st1" d="M428.87,80.73c0-7.16,0.15-14.33-0.08-21.49c-0.08-2.65,0.91-3.66,3.28-3.77c2.32-0.11,4.66-0.31,6.98-0.17
		c4.32,0.27,6.74,2.66,6.75,7.06c0.03,14.83,0.44,29.67-0.16,44.47c-0.6,14.83-17.51,23.59-30.76,16.49
		c-3.95-2.12-5.33-7.2-3.21-11.18c0.79-1.47,1.59-1.77,3.16-1.35c1.59,0.42,3.29,0.53,4.94,0.55c4.91,0.06,8.95-3.86,9.04-8.76
		c0.14-7.28,0.03-14.57,0.03-21.86C428.86,80.73,428.87,80.73,428.87,80.73z"/>
	<path class="st1" d="M616.35,162.07c0.83-3.63,1.61-6.67,2.2-9.75c0.36-1.89,0.52-3.49,3.19-3.44c2.75,0.05,2.57,1.99,3.08,3.68
		c0.88,2.96,0.76,6.21,2.61,9.54c0.75-4,1.55-7.37,1.98-10.78c0.35-2.76,2.17-2.44,3.99-2.36c2.78,0.12,1.54,2.08,1.3,3.28
		c-1.14,5.7-2.62,11.34-3.58,17.07c-0.41,2.44-1.48,2.81-3.59,2.9c-2.37,0.1-3.23-0.96-3.63-3.06c-0.51-2.74-1.22-5.44-1.98-8.78
		c-1.85,3.08-2.04,5.97-2.54,8.67c-0.46,2.5-1.55,3.11-3.94,3.19c-2.63,0.09-2.99-1.45-3.37-3.3c-1.18-5.7-2.33-11.4-3.54-17.09
		c-0.27-1.25-1.24-2.81,1.09-2.83c1.62-0.02,3.72-0.91,4.27,2.01C614.55,154.52,614.58,158.2,616.35,162.07z"/>
	<path class="st1" d="M917.81,172.66c-7.24,0-7.26,0-6.07-7.18c0.73-4.42,1.66-8.8,2.23-13.24c0.37-2.88,1.59-3.96,4.51-3.59
		c2.29,0.28,4.64,0.04,6.96,0.06c4.73,0.04,6.85,2.59,6.03,7.26c-0.37,2.12-0.76,4.24-1.16,6.36
		C928.48,171.87,927.52,172.66,917.81,172.66z M920.38,166.65c1.38-0.16,3.32,0.59,3.35-1.79c0.02-1.93-1.65-1.18-2.59-1.18
		c-1.33-0.01-3.33-0.67-3.35,1.7C917.76,167.25,919.43,166.41,920.38,166.65z M922.15,157.63c1.56-0.02,3.42,0.22,3.25-1.98
		c-0.13-1.62-1.78-0.99-2.78-0.99c-1.17,0-2.9-0.67-3.12,1.34C919.24,158.32,921.14,157.39,922.15,157.63z"/>
	<path class="st1" d="M903.16,148.7c6.82,0,8.36,1.96,7.06,8.87c-0.71,3.75-1.55,7.5-1.91,11.29c-0.31,3.23-1.77,4.33-4.78,3.79
		c-3.82-0.69-1.27-3.22-0.99-4.59c0.68-3.32,0.29-5.07-3.64-4.45c-1.42,0.22-1.98,0.82-2.15,2.17c-0.2,1.65-0.62,3.26-0.86,4.9
		c-0.49,3.33-3.08,1.82-4.72,1.87c-2.34,0.07-1.26-1.81-1.08-2.92c0.64-3.93,1.36-7.85,2.1-11.77
		C893.56,150.5,895.74,148.7,903.16,148.7z M901.21,157.64c1.46-0.09,3.38,0.37,3.29-1.9c-0.07-1.74-1.72-1.09-2.71-1.08
		c-1.3,0.02-3.31-0.76-3.21,1.74C898.66,158.25,900.28,157.39,901.21,157.64z"/>
	<path class="st1" d="M737.83,160.53c0-1-0.15-2.03,0.03-2.99c0.51-2.81-1.73-7.31,1.11-8.16c4.24-1.26,9.24-1.23,13.6,1.14
		c1.77,0.96,3.37,3.37,2.51,4.4c-4.19,4.98,4.42,11.25-1.69,15.51c-4.41,3.08-9.69,1.52-14.6,1.53c-1.3,0-0.93-1.51-0.94-2.44
		C737.82,166.53,737.83,163.53,737.83,160.53z M746.19,167.72c2.26,0.01,4.02-0.47,3.88-2.94c-0.14-2.27-1.98-2.22-3.69-2.34
		c-1.99-0.14-2.97,0.32-2.94,2.66C743.47,167.43,744.41,168.02,746.19,167.72z M749.74,156.38c-0.06-2.12-1.41-2.7-3.22-2.82
		c-1.76-0.11-3.28-0.1-3.03,2.42c0.14,1.48-0.19,2.98,2.15,2.84C747.49,158.72,749.26,158.72,749.74,156.38z"/>
	<path class="st1" d="M953.27,148.7c0.44,4.96-1.59,6.76-6.02,5.94c-0.48-0.09-1.03-0.13-1.49,0.01c-1.82,0.55-5.23-1.51-5.2,1.7
		c0.02,2.56,3.41,1.43,4.92,1.13c3.73-0.75,3.26,3.75,5.85,4.1c-1.26,2.56-0.02,5.64-2.58,8.16c-4.35,4.28-9.47,2.58-14.35,2.88
		c-1.13,0.07-3.07,0.63-2.68-1.64c0.29-1.74-0.4-4.35,2.77-4.34c2.66,0.01,5.32-0.01,7.99,0c1.35,0.01,2.36-0.43,2.18-1.97
		c-0.17-1.51-1.56-0.69-2.33-1.05c-2-0.94-3.95,0.69-6.56-1.96c-3.52-3.57-1.48-6.57-0.59-8.41c0.93-1.92,3.18-4.83,6.75-4.6
		C945.72,148.89,949.53,148.7,953.27,148.7z"/>
	<path class="st1" d="M678.89,171.64c-4.33,1.6-6.66-0.04-8.11-3.9c-0.58-1.55-0.99-3.95-3.47-3.46c-2.51,0.5-1.11,2.73-1.24,4.16
		c-0.17,2.02,0.3,3.84-2.93,3.8c-3.41-0.04-2.62-2.15-2.63-4.01c-0.02-5.48,0.07-10.96-0.05-16.44c-0.04-2.12,0.58-3.05,2.8-2.88
		c3.29,0.25,6.64-0.41,9.89,0.62c4.52,1.44,7.22,6.88,4.15,10.16c-3.36,3.59-1.73,5.94,0.04,8.89
		C677.91,169.53,678.35,170.56,678.89,171.64z M668.67,159.72c2.6,0.04,4.24-0.9,4.06-3.39c-0.19-2.61-2.25-2.69-4.35-2.81
		c-2.59-0.14-2.3,1.44-2.42,3.14C665.79,158.96,666.46,160.15,668.67,159.72z"/>
	<path class="st1" d="M704.55,160.28c0-1-0.22-2.06,0.04-2.98c0.79-2.74-2.26-6.77,1.76-8.2c5.1-1.81,11.92,0.71,14.42,4.43
		c2.86,4.25,2.57,11.14-0.64,14.98c-2.55,3.06-10.58,4.97-14.39,3.61c-1.69-0.6-1.14-1.81-1.16-2.84
		C704.51,166.28,704.55,163.28,704.55,160.28z M716.92,160.48c-0.06-1.65,0.05-3.3-0.79-4.85c-0.98-1.8-2.51-2.76-4.45-2.59
		c-2.74,0.23-1.5,2.49-1.6,3.9c-0.17,2.48-0.17,4.99,0,7.47c0.09,1.26-1.07,3.25,1.3,3.61c1.94,0.3,3.57-0.39,4.62-2.21
		C716.97,164.13,716.89,162.31,716.92,160.48z"/>
	<path class="st1" d="M584.16,160.67c-0.03-7.39,3.95-12.08,10.21-12.05c6.05,0.04,9.98,4.59,10.1,11.7
		c0.12,7.33-3.85,12.24-9.99,12.34C588.27,172.75,584.19,168.01,584.16,160.67z M598.73,160.43c0.17-1.59-0.08-3.38-0.89-5.07
		c-0.71-1.48-1.97-2.32-3.54-2.33c-1.58-0.01-2.92,0.81-3.52,2.33c-1.39,3.54-1.4,7.13,0.1,10.63c0.64,1.49,2.03,2.15,3.67,2.05
		c1.63-0.1,2.75-0.94,3.39-2.49C598.59,163.99,598.86,162.38,598.73,160.43z"/>
	<path class="st1" d="M692.07,148.95c1.5,0,3-0.05,4.49,0.01c1.52,0.06,3.48-0.69,3.43,2.14c-0.05,2.59-1.87,1.77-3.18,1.85
		c-1.49,0.09-3,0.14-4.49,0c-2.35-0.22-2.67,1.01-2.69,2.98c-0.02,2.01,0.89,2.26,2.62,2.62c2.07,0.43,5.9-2.12,5.99,1.82
		c0.09,4.08-3.83,1.73-5.86,1.97c-2.16,0.25-2.77,0.82-2.77,2.94c0,2.1,0.52,3.07,2.78,2.86c1.81-0.16,3.66,0,5.48-0.03
		c1.46-0.03,2.05,0.6,2.06,2.08c0.02,1.57-0.76,1.98-2.14,1.96c-3.82-0.03-7.65-0.03-11.47,0c-1.52,0.01-2.44-0.31-2.41-2.21
		c0.1-6.15,0.11-12.31,0-18.47c-0.04-2.06,0.86-2.6,2.67-2.54C688.41,149,690.24,148.95,692.07,148.95z"/>
	<path class="st1" d="M639.94,160.57c0-11.79,0-11.83,11.94-11.58c1.49,0.03,4.02-1.24,4.04,1.98c0.02,3.3-2.55,1.66-4.02,1.95
		c-1.12,0.23-2.33,0.14-3.48,0.03c-2.19-0.22-2.79,0.72-2.83,2.84c-0.05,2.41,1.13,2.78,3.05,2.65c0.83-0.06,1.67-0.07,2.49,0.01
		c1.33,0.13,3.19-0.67,3.26,1.84c0.08,2.79-1.95,2.08-3.48,2.17c-0.99,0.06-2,0.1-2.99,0c-2.24-0.24-2.33,1.12-2.29,2.78
		c0.04,1.55-0.18,3.05,2.19,2.89c1.98-0.13,3.98,0.01,5.98-0.02c1.4-0.02,2.1,0.49,2.12,2.02c0.02,1.54-0.64,2.03-2.07,2.02
		c-3.99-0.04-7.97-0.05-11.96,0c-1.93,0.02-2.01-1.12-1.98-2.6C639.99,166.56,639.94,163.56,639.94,160.57z"/>
	<path class="st1" d="M561.18,160.45c0-1-0.16-2.03,0.03-2.99c0.55-2.78-1.78-7.29,1.2-8.07c4.59-1.19,9.99-1.64,14.36,1.69
		c2.44,1.86,3.2,4.56,2.39,7.59c-0.96,3.58-3.69,5.33-7.02,5.21c-4.23-0.15-6.21,1.03-5.3,5.5c0.46,2.25-0.69,2.85-2.79,2.79
		c-1.95-0.06-3.1-0.35-2.92-2.76C561.35,166.45,561.18,163.45,561.18,160.45z M566.89,156.59c-0.07,1.85-0.55,3.8,2.47,3.55
		c2.3-0.19,4.43-0.37,4.42-3.33c0-2.63-1.57-3.65-4.1-3.88C566.49,152.63,566.74,154.61,566.89,156.59z"/>
	<path class="st1" d="M768.98,158.19c3.18-3.33,1.63-11.18,10.13-8.83c-1.42,2.83-2.74,5.59-4.2,8.29c-1.98,3.68-3.8,7.36-3.1,11.75
		c0.27,1.69-0.11,3.04-2.3,2.73c-1.32-0.18-3.64,0.6-3.31-1.7c1.16-8.19-4.56-13.93-7.02-20.82
		C763.97,148.6,763.97,148.6,768.98,158.19z"/>
	<path class="st1" d="M878.63,172.65c-2.71-0.28-5.95,1.26-7.9-2.82c-0.5-1.05-1.2-1.92-0.99-3.11c0.9-5.24,2.05-10.44,2.73-15.7
		c0.43-3.33,2.7-2.27,4.43-2.27c3.22-0.01,1.41,2.22,1.33,3.55c-0.07,1.32-0.41,2.62-0.62,3.93c-0.52,3.26-2.38,7.22-1.16,9.57
		c1.21,2.33,5.73,0.44,8.76,0.83c1.03,0.13,2.83-0.31,2.2,1.57c-0.53,1.59,0.54,4.41-2.66,4.44
		C882.77,172.67,880.77,172.65,878.63,172.65z"/>
	<path class="st3" d="M840.48,170.73c-1.16,0-2.33,0-3.49,0c-7.74,0-7.99-0.45-5.72-8.06c0.54-1.82,1.38-2.31,3.12-2.32
		c2.18-0.02,2.52,1.06,2.1,2.83c-0.41,1.76,0.39,2.2,2.07,2.41c7.16,0.91,7.85,0.48,9.06-6.53c1.59-9.21,1.59-9.06-7.52-9.32
		c-2.02-0.06-5.63,1.99-6.06-1.72c-0.53-4.64,3.52-3.23,6.05-3.32c3.99-0.14,7.98,0.06,11.97-0.07c2.84-0.1,3.33,1.13,2.51,4.26
		c-1.54,5.89-2.81,11.87-3.18,17.94c-0.17,2.84-0.97,4.07-3.43,3.93C845.48,170.63,842.98,170.73,840.48,170.73z"/>
	<path class="st3" d="M813.24,170.95c-10.1,0-10.11,0-8.42-10.17c0.71-4.27,1.58-8.51,2.19-12.8c0.36-2.5,1.57-3.54,4.01-3.09
		c2.94,0.54,1.28,2.54,1.08,3.9c-0.7,4.61-1.5,9.2-2.39,13.77c-0.46,2.33,0.08,3.39,2.67,3.25c2.99-0.17,5.99-0.12,8.98,0
		c1.23,0.05,3.36-0.91,3.13,1.77c-0.17,1.92-0.64,3.57-3.25,3.4C818.58,170.81,815.9,170.95,813.24,170.95z"/>
	<path class="st1" d="M58.61,116.47c5.95-0.08,10.44,1.7,15.08,2.38c0.98,0.14,1.95,0.67,2.91,0.63c2.28-0.1,5.84,2.21,6.54-0.81
		c0.72-3.12-3.39-1.98-5.26-2.82c-4.22-1.89-6.99-4.79-6.74-9.45c0.23-4.33,4.01-5.42,7.46-6.09c5.09-0.99,10.25-1.1,15.31,0.28
		c2.93,0.8,5.92,1.84,6.31,5.46c0.41,3.84-1.39,6.75-4.63,8.72c-1.11,0.68-2.48,0.92-3.66,1.52c-1.39,0.71-4.53-0.4-3.77,2.55
		c0.61,2.36,3.18,1.14,4.76,0.88c5.57-0.92,11.08-2.13,16.62-3.24c0.8-0.16,1.6-0.49,2.23,0.36
		C96.7,131.16,74.47,130.03,58.61,116.47z"/>
</g>
</svg>
